<svg width="120" height="140" viewBox="0 0 120 140" fill="none" xmlns="http://www.w3.org/2000/svg">
<path d="M98 18H22C18.6863 18 16 20.6863 16 24V122C16 125.314 18.6863 128 22 128H98C101.314 128 104 125.314 104 122V24C104 20.6863 101.314 18 98 18Z" fill="#415794"/>
<path d="M94 26H26C24.8954 26 24 26.8954 24 28V118C24 119.105 24.8954 120 26 120H94C95.1046 120 96 119.105 96 118V28C96 26.8954 95.1046 26 94 26Z" fill="#F1F3F5"/>
<path d="M72 18V16C72 14.9391 71.5786 13.9217 70.8284 13.1716C70.0783 12.4214 69.0609 12 68 12H52C50.9391 12 49.9217 12.4214 49.1716 13.1716C48.4214 13.9217 48 14.9391 48 16V18H40V24C40 25.0609 40.4214 26.0783 41.1716 26.8284C41.9217 27.5786 42.9391 28 44 28H76C77.0609 28 78.0783 27.5786 78.8284 26.8284C79.5786 26.0783 80 25.0609 80 24V18H72Z" fill="#9AA9D0"/>
<path d="M76 36H44C41.7909 36 40 37.7909 40 40V72C40 74.2091 41.7909 76 44 76H76C78.2091 76 80 74.2091 80 72V40C80 37.7909 78.2091 36 76 36Z" fill="#5976C8"/>
<path d="M68 36V50.176C67.9999 50.3678 67.9446 50.5555 67.8408 50.7167C67.7369 50.8779 67.5889 51.0059 67.4144 51.0853C67.2399 51.1648 67.0462 51.1924 66.8564 51.1649C66.6666 51.1373 66.4887 51.0558 66.344 50.93L64.514 49.34C64.3264 49.1763 64.0845 49.0884 63.8356 49.0936C63.5867 49.0987 63.3486 49.1966 63.168 49.368L60.688 51.724C60.5022 51.9001 60.256 51.9983 60 51.9983C59.744 51.9983 59.4978 51.9001 59.312 51.724L56.832 49.368C56.6514 49.1966 56.4134 49.0987 56.1644 49.0936C55.9155 49.0884 55.6736 49.1763 55.486 49.34L53.656 50.93C53.5113 51.0558 53.3334 51.1373 53.1436 51.1649C52.9538 51.1924 52.7601 51.1648 52.5856 51.0853C52.4111 51.0059 52.2631 50.8779 52.1593 50.7167C52.0554 50.5555 52.0001 50.3678 52 50.176V36H68Z" fill="#9AA9D0"/>
<path d="M22 20H32C32.5304 20 33.0391 19.7893 33.4142 19.4142C33.7893 19.0391 34 18.5304 34 18C34 17.4696 33.7893 16.9609 33.4142 16.5858C33.0391 16.2107 32.5304 16 32 16H22C19.8783 16 17.8434 16.8429 16.3431 18.3431C14.8429 19.8434 14 21.8783 14 24V122C14 124.122 14.8429 126.157 16.3431 127.657C17.8434 129.157 19.8783 130 22 130H98C100.122 130 102.157 129.157 103.657 127.657C105.157 126.157 106 124.122 106 122V24C106 21.8783 105.157 19.8434 103.657 18.3431C102.157 16.8429 100.122 16 98 16H74C74 14.4087 73.3679 12.8826 72.2426 11.7574C71.1174 10.6321 69.5913 10 68 10H52C50.4087 10 48.8826 10.6321 47.7574 11.7574C46.6321 12.8826 46 14.4087 46 16H40C39.4696 16 38.9609 16.2107 38.5858 16.5858C38.2107 16.9609 38 17.4696 38 18V24H26C24.9391 24 23.9217 24.4214 23.1716 25.1716C22.4214 25.9217 22 26.9391 22 28V118C22 119.061 22.4214 120.078 23.1716 120.828C23.9217 121.579 24.9391 122 26 122H94C95.0609 122 96.0783 121.579 96.8284 120.828C97.5786 120.078 98 119.061 98 118V28C98 26.9391 97.5786 25.9217 96.8284 25.1716C96.0783 24.4214 95.0609 24 94 24H82V20H98C99.0609 20 100.078 20.4214 100.828 21.1716C101.579 21.9217 102 22.9391 102 24V122C102 123.061 101.579 124.078 100.828 124.828C100.078 125.579 99.0609 126 98 126H22C20.9391 126 19.9217 125.579 19.1716 124.828C18.4214 124.078 18 123.061 18 122V24C18 22.9391 18.4214 21.9217 19.1716 21.1716C19.9217 20.4214 20.9391 20 22 20ZM42 20H48C48.5304 20 49.0391 19.7893 49.4142 19.4142C49.7893 19.0391 50 18.5304 50 18V16C50 15.4696 50.2107 14.9609 50.5858 14.5858C50.9609 14.2107 51.4696 14 52 14H68C68.5304 14 69.0391 14.2107 69.4142 14.5858C69.7893 14.9609 70 15.4696 70 16V18C70 18.5304 70.2107 19.0391 70.5858 19.4142C70.9609 19.7893 71.4696 20 72 20H78V24C78 24.5304 77.7893 25.0391 77.4142 25.4142C77.0391 25.7893 76.5304 26 76 26H44C43.4696 26 42.9609 25.7893 42.5858 25.4142C42.2107 25.0391 42 24.5304 42 24V20ZM94 28V118H26V28H39.56C40.118 28.6267 40.8018 29.1287 41.5668 29.4733C42.3318 29.8179 43.1609 29.9974 44 30H76C76.8391 29.9974 77.6681 29.8179 78.4332 29.4733C79.1982 29.1287 79.882 28.6267 80.44 28H94Z" fill="#353A47"/>
<path d="M76 34H44C42.4087 34 40.8826 34.6321 39.7574 35.7574C38.6321 36.8826 38 38.4087 38 40V72C38 73.5913 38.6321 75.1174 39.7574 76.2426C40.8826 77.3679 42.4087 78 44 78H76C77.5913 78 79.1174 77.3679 80.2426 76.2426C81.3679 75.1174 82 73.5913 82 72V40C82 38.4087 81.3679 36.8826 80.2426 35.7574C79.1174 34.6321 77.5913 34 76 34ZM61.8 47.92L60 49.622L58.21 47.922C57.6718 47.4026 56.9578 47.1048 56.21 47.0877C55.4622 47.0707 54.7354 47.3357 54.174 47.83L54 47.982V38H66V47.982L65.83 47.834C65.2691 47.3419 64.5443 47.0778 63.7983 47.0937C63.0523 47.1096 62.3394 47.4044 61.8 47.92ZM78 72C78 72.5304 77.7893 73.0391 77.4142 73.4142C77.0391 73.7893 76.5304 74 76 74H44C43.4696 74 42.9609 73.7893 42.5858 73.4142C42.2107 73.0391 42 72.5304 42 72V40C42 39.4696 42.2107 38.9609 42.5858 38.5858C42.9609 38.2107 43.4696 38 44 38H50V50.176C50.0001 50.7515 50.1656 51.3148 50.477 51.7988C50.7883 52.2828 51.2323 52.667 51.7559 52.9056C52.2796 53.1443 52.8609 53.2272 53.4304 53.1447C53.9999 53.0621 54.5337 52.8175 54.968 52.44L56.112 51.44L57.932 53.168C58.4896 53.6981 59.2296 53.9937 59.999 53.9937C60.7684 53.9937 61.5084 53.6981 62.066 53.168L63.886 51.44L65.034 52.44C65.4684 52.8169 66.002 53.061 66.5712 53.1432C67.1404 53.2254 67.7212 53.1423 68.2445 52.9037C68.7678 52.6651 69.2114 52.2812 69.5227 51.7976C69.8339 51.314 69.9996 50.7511 70 50.176V38H76C76.5304 38 77.0391 38.2107 77.4142 38.5858C77.7893 38.9609 78 39.4696 78 40V72Z" fill="#353A47"/>
<path d="M58 22H62C62.5304 22 63.0391 21.7893 63.4142 21.4142C63.7893 21.0391 64 20.5304 64 20C64 19.4696 63.7893 18.9609 63.4142 18.5858C63.0391 18.2107 62.5304 18 62 18H58C57.4696 18 56.9609 18.2107 56.5858 18.5858C56.2107 18.9609 56 19.4696 56 20C56 20.5304 56.2107 21.0391 56.5858 21.4142C56.9609 21.7893 57.4696 22 58 22Z" fill="#353A47"/>
<path d="M48 62C47.4696 62 46.9609 62.2107 46.5858 62.5858C46.2107 62.9609 46 63.4696 46 64V68C46 68.5304 46.2107 69.0391 46.5858 69.4142C46.9609 69.7893 47.4696 70 48 70C48.5304 70 49.0391 69.7893 49.4142 69.4142C49.7893 69.0391 50 68.5304 50 68V64C50 63.4696 49.7893 62.9609 49.4142 62.5858C49.0391 62.2107 48.5304 62 48 62Z" fill="#353A47"/>
<path d="M56 62C55.4696 62 54.9609 62.2107 54.5858 62.5858C54.2107 62.9609 54 63.4696 54 64V68C54 68.5304 54.2107 69.0391 54.5858 69.4142C54.9609 69.7893 55.4696 70 56 70C56.5304 70 57.0391 69.7893 57.4142 69.4142C57.7893 69.0391 58 68.5304 58 68V64C58 63.4696 57.7893 62.9609 57.4142 62.5858C57.0391 62.2107 56.5304 62 56 62Z" fill="#353A47"/>
<path d="M46.5858 84.586L39.9998 91.172L39.4138 90.586C39.0366 90.2216 38.5314 90.0201 38.007 90.0246C37.4826 90.0292 36.981 90.2395 36.6102 90.6103C36.2394 90.9811 36.029 91.4828 36.0245 92.0072C36.0199 92.5315 36.2215 93.0368 36.5858 93.414L38.5858 95.414C38.9609 95.7889 39.4695 95.9995 39.9998 95.9995C40.5302 95.9995 41.0388 95.7889 41.4138 95.414L49.4138 87.414C49.7782 87.0368 49.9797 86.5315 49.9752 86.0072C49.9706 85.4828 49.7603 84.9811 49.3895 84.6103C49.0187 84.2395 48.517 84.0292 47.9926 84.0246C47.4682 84.0201 46.963 84.2216 46.5858 84.586Z" fill="#353A47"/>
<path d="M58 84C57.4696 84 56.9609 84.2107 56.5858 84.5858C56.2107 84.9609 56 85.4696 56 86C56 86.5304 56.2107 87.0391 56.5858 87.4142C56.9609 87.7893 57.4696 88 58 88H82C82.5304 88 83.0391 87.7893 83.4142 87.4142C83.7893 87.0391 84 86.5304 84 86C84 85.4696 83.7893 84.9609 83.4142 84.5858C83.0391 84.2107 82.5304 84 82 84H58Z" fill="#353A47"/>
<path d="M82 92H68C67.4696 92 66.9609 92.2107 66.5858 92.5858C66.2107 92.9609 66 93.4696 66 94C66 94.5304 66.2107 95.0391 66.5858 95.4142C66.9609 95.7893 67.4696 96 68 96H82C82.5304 96 83.0392 95.7893 83.4142 95.4142C83.7893 95.0391 84 94.5304 84 94C84 93.4696 83.7893 92.9609 83.4142 92.5858C83.0392 92.2107 82.5304 92 82 92Z" fill="#353A47"/>
<path d="M58 96H60C60.5304 96 61.0391 95.7893 61.4142 95.4142C61.7893 95.0391 62 94.5304 62 94C62 93.4696 61.7893 92.9609 61.4142 92.5858C61.0391 92.2107 60.5304 92 60 92H58C57.4696 92 56.9609 92.2107 56.5858 92.5858C56.2107 92.9609 56 93.4696 56 94C56 94.5304 56.2107 95.0391 56.5858 95.4142C56.9609 95.7893 57.4696 96 58 96Z" fill="#353A47"/>
<path d="M46.5858 100.586L39.9998 107.172L39.4138 106.586C39.0366 106.222 38.5314 106.02 38.007 106.025C37.4826 106.029 36.981 106.24 36.6102 106.61C36.2394 106.981 36.029 107.483 36.0245 108.007C36.0199 108.532 36.2215 109.037 36.5858 109.414L38.5858 111.414C38.9609 111.789 39.4695 112 39.9998 112C40.5302 112 41.0388 111.789 41.4138 111.414L49.4138 103.414C49.7782 103.037 49.9797 102.532 49.9752 102.007C49.9706 101.483 49.7603 100.981 49.3895 100.61C49.0187 100.24 48.517 100.029 47.9926 100.025C47.4682 100.02 46.963 100.222 46.5858 100.586Z" fill="#353A47"/>
<path d="M82 100H58C57.4696 100 56.9609 100.211 56.5858 100.586C56.2107 100.961 56 101.47 56 102C56 102.53 56.2107 103.039 56.5858 103.414C56.9609 103.789 57.4696 104 58 104H82C82.5304 104 83.0391 103.789 83.4142 103.414C83.7893 103.039 84 102.53 84 102C84 101.47 83.7893 100.961 83.4142 100.586C83.0391 100.211 82.5304 100 82 100Z" fill="#353A47"/>
<path d="M82 108H68C67.4696 108 66.9609 108.211 66.5858 108.586C66.2107 108.961 66 109.47 66 110C66 110.53 66.2107 111.039 66.5858 111.414C66.9609 111.789 67.4696 112 68 112H82C82.5304 112 83.0392 111.789 83.4142 111.414C83.7893 111.039 84 110.53 84 110C84 109.47 83.7893 108.961 83.4142 108.586C83.0392 108.211 82.5304 108 82 108Z" fill="#353A47"/>
<path d="M60 108H58C57.4696 108 56.9609 108.211 56.5858 108.586C56.2107 108.961 56 109.47 56 110C56 110.53 56.2107 111.039 56.5858 111.414C56.9609 111.789 57.4696 112 58 112H60C60.5304 112 61.0391 111.789 61.4142 111.414C61.7893 111.039 62 110.53 62 110C62 109.47 61.7893 108.961 61.4142 108.586C61.0391 108.211 60.5304 108 60 108Z" fill="#353A47"/>
</svg>
